<?xml version="1.0" standalone="no"?>
<!DOCTYPE svg PUBLIC "-//W3C//DTD SVG 20010904//EN"
 "http://www.w3.org/TR/2001/REC-SVG-20010904/DTD/svg10.dtd">
<svg version="1.0" xmlns="http://www.w3.org/2000/svg"
 width="3750.000000pt" height="3750.000000pt" viewBox="0 0 3750.000000 3750.000000"
 preserveAspectRatio="xMidYMid meet">

<g transform="translate(0.000000,3750.000000) scale(0.100000,-0.100000)"
fill="#000000" stroke="none">
<path d="M18501 27181 c-16 -10 -55 -118 -66 -180 -6 -34 -2 -52 19 -94 28
-58 81 -103 185 -158 48 -25 86 -58 155 -133 185 -204 222 -233 466 -376 93
-54 129 -116 121 -212 -2 -29 -49 -75 -103 -101 -75 -36 -159 -50 -268 -47
-192 7 -275 5 -298 -9 -40 -22 -17 -25 86 -12 88 12 107 11 202 -8 58 -11 123
-26 145 -32 47 -13 145 -60 145 -69 0 -3 -18 -23 -40 -45 -22 -21 -45 -55 -51
-74 -6 -20 -42 -97 -79 -171 -72 -144 -104 -232 -126 -348 -7 -39 -25 -95 -39
-123 -46 -90 -85 -225 -85 -294 0 -81 42 -291 69 -344 30 -58 72 -103 122
-129 24 -12 36 -17 25 -10 -79 55 -95 71 -123 124 -21 41 -39 101 -58 198 -39
196 -32 243 62 448 24 53 48 121 53 150 13 79 63 208 134 343 35 66 69 136 75
156 6 20 32 55 57 78 24 23 42 47 39 52 -15 23 -186 89 -232 89 -47 0 -13 17
46 23 180 19 289 125 258 250 -12 48 -71 109 -139 143 -156 78 -290 191 -469
394 -48 54 -84 84 -130 108 -147 76 -208 149 -195 232 7 42 25 90 35 90 3 0
20 -21 36 -46 17 -25 46 -53 65 -63 58 -31 190 -78 265 -95 45 -11 90 -30 128
-55 32 -22 71 -42 86 -46 49 -10 94 -59 144 -154 47 -89 52 -94 161 -175 165
-124 203 -189 213 -361 3 -58 8 -105 10 -105 3 0 23 13 46 29 23 15 53 32 67
36 92 29 158 143 181 314 0 3 5 -7 10 -24 12 -40 23 -347 12 -360 -22 -28
-125 -106 -175 -134 -32 -18 -91 -41 -132 -51 -93 -22 -97 -25 -90 -58 9 -45
-23 -218 -50 -278 -15 -31 -44 -83 -66 -116 -30 -43 -44 -77 -54 -131 -13 -66
-36 -124 -101 -262 -52 -108 -57 -191 -19 -314 34 -112 56 -154 98 -186 l34
-26 194 2 c106 1 218 1 249 0 59 -2 71 5 84 49 4 14 11 27 14 30 4 3 5 27 3
54 -5 54 -22 45 -22 -11 0 -37 -16 -85 -33 -95 -6 -4 -99 -7 -207 -8 l-195 0
-42 42 c-22 24 -44 54 -48 68 -4 14 -19 42 -33 63 -35 53 -42 139 -14 193 12
24 22 71 26 122 4 48 19 124 36 176 17 51 30 104 30 117 0 13 28 78 61 145 64
125 72 163 82 350 l2 42 55 13 c73 16 189 75 270 136 l65 48 3 115 c3 123 -10
281 -30 343 -13 43 -38 50 -38 10 0 -57 -38 -244 -55 -271 -30 -47 -57 -71
-86 -77 -15 -4 -47 -21 -70 -40 -46 -36 -62 -37 -54 -2 11 46 -22 203 -55 265
-30 57 -50 79 -203 215 -26 23 -50 51 -53 62 -15 56 -60 164 -81 193 -13 18
-41 41 -61 51 -44 22 -254 91 -279 91 -23 0 -73 17 -177 59 -76 31 -95 43
-128 84 -23 29 -41 65 -44 88 -7 41 -10 44 -33 30z"/>
<path d="M14180 26045 c-36 -7 -96 -25 -134 -39 -38 -14 -89 -26 -115 -26 -96
0 -224 -49 -297 -112 -36 -32 -60 -77 -105 -197 -48 -126 -199 -255 -359 -306
-150 -48 -217 -75 -238 -98 -27 -28 -52 -125 -52 -198 l0 -57 -121 -139 c-138
-156 -169 -212 -177 -313 -4 -58 -1 -73 23 -120 32 -62 109 -142 195 -200 68
-46 373 -208 465 -247 82 -35 224 -81 260 -85 l30 -3 8 -95 c6 -71 18 -124 48
-210 81 -231 92 -286 64 -310 -16 -14 -99 -7 -119 9 -6 5 -42 26 -81 46 -117
63 -137 77 -151 111 -23 54 -18 90 15 113 16 12 36 21 45 21 20 0 21 16 1 24
-17 6 -140 -8 -231 -27 -66 -14 -202 -88 -247 -135 -22 -23 -31 -45 -39 -103
-10 -68 -9 -76 11 -115 16 -29 37 -50 71 -68 44 -24 60 -27 182 -30 123 -2
138 -5 207 -34 40 -18 111 -55 158 -84 81 -49 88 -52 167 -56 93 -5 145 11
216 68 58 46 70 81 70 207 0 141 -12 214 -55 353 -27 87 -38 143 -44 230 -5
63 -7 117 -5 118 1 2 19 -1 39 -8 46 -15 183 -5 284 21 41 10 82 19 90 19 28
0 115 46 145 76 30 30 93 151 83 160 -3 3 -8 -5 -12 -18 -4 -13 -23 -49 -43
-82 -30 -50 -44 -62 -96 -87 -33 -16 -68 -29 -76 -29 -8 0 -51 -9 -95 -20 -99
-24 -260 -27 -289 -5 -11 8 -29 15 -39 15 -19 0 -20 -6 -14 -122 5 -107 11
-140 46 -252 52 -163 63 -237 59 -386 -4 -138 -12 -155 -96 -206 -97 -58 -210
-53 -310 14 -139 95 -267 142 -385 142 -69 0 -92 4 -135 26 -29 14 -58 36 -64
47 -7 12 -12 56 -12 99 -1 66 2 80 22 100 39 43 163 106 234 121 l67 13 -25
-29 c-51 -61 -20 -162 59 -191 174 -63 228 -77 310 -83 152 -10 156 10 57 300
-47 137 -60 188 -60 235 0 33 -3 74 -6 91 -6 28 -10 31 -44 31 -65 0 -264 77
-466 180 -224 114 -313 171 -382 244 -88 93 -110 159 -86 253 20 76 52 122
184 263 l117 125 5 85 c6 118 31 171 95 203 26 13 90 36 141 50 133 38 198 75
283 159 75 74 102 118 155 251 48 119 160 196 299 205 39 2 110 17 160 33 50
16 133 34 185 40 l95 11 75 -32 c41 -18 101 -41 132 -52 42 -14 76 -37 128
-85 94 -87 112 -127 121 -273 5 -63 11 -153 15 -200 l6 -86 -48 -64 c-87 -115
-222 -209 -346 -241 -38 -10 -49 -10 -62 0 -21 18 -20 41 2 41 26 0 113 44
150 76 31 27 53 70 129 249 18 42 26 78 26 122 0 52 4 64 19 69 10 3 22 2 28
-1 5 -3 10 -2 10 3 0 13 -37 21 -75 17 -126 -13 -342 -27 -400 -26 -38 1 -110
8 -160 17 -209 37 -273 10 -427 -173 -84 -101 -170 -173 -301 -255 -57 -35
-103 -71 -111 -87 -8 -14 -21 -66 -31 -115 -20 -111 -32 -133 -100 -198 -88
-83 -83 -153 13 -202 27 -14 89 -49 138 -79 112 -68 163 -94 344 -175 257
-114 285 -122 438 -122 156 0 245 18 289 58 16 15 21 21 12 14 -38 -30 -160
-52 -283 -52 -151 0 -201 13 -391 100 -254 116 -300 147 -427 288 -45 50 -48
83 -17 187 14 46 22 104 24 171 1 55 8 110 14 122 7 12 64 58 129 101 131 89
179 130 278 246 77 90 104 114 152 139 60 31 124 35 230 14 176 -34 193 -35
381 -20 100 8 185 11 189 7 4 -4 7 -37 7 -73 0 -62 -4 -76 -65 -197 -57 -115
-70 -134 -112 -161 -25 -17 -67 -35 -91 -38 -25 -4 -51 -13 -57 -21 -16 -19
-4 -52 26 -71 33 -22 78 -12 193 43 78 37 108 59 181 131 48 48 97 106 109
129 23 46 28 124 11 182 -5 18 -12 77 -15 130 -10 154 -34 210 -127 301 -50
48 -79 66 -143 91 -44 17 -84 34 -90 37 -5 4 -32 14 -60 24 -58 20 -115 21
-205 3z"/>
<path d="M17815 26031 c-151 -30 -257 -60 -324 -93 -76 -37 -195 -103 -219
-122 -9 -8 -42 -34 -72 -58 -60 -48 -107 -111 -148 -198 -14 -30 -37 -73 -51
-95 l-25 -40 2 -305 c3 -329 4 -343 33 -408 11 -24 25 -66 31 -93 12 -50 12
-50 -45 -162 -89 -174 -99 -283 -32 -351 50 -52 91 -69 175 -74 126 -7 240 31
318 107 113 110 144 207 123 391 -7 60 -9 134 -6 165 6 44 4 55 -7 55 -13 0
-64 -89 -88 -153 -5 -16 -14 -26 -19 -23 -14 9 -31 100 -31 168 0 125 -29 259
-77 356 -32 67 -35 79 -31 137 3 36 16 85 29 112 35 74 149 181 241 227 70 34
89 39 190 46 62 5 129 12 149 16 l37 6 16 -49 c18 -54 45 -86 89 -102 27 -10
27 -12 27 -98 1 -109 20 -216 54 -308 37 -98 60 -135 160 -263 85 -108 126
-186 126 -236 0 -22 -53 -148 -103 -243 -33 -63 -159 -153 -215 -153 -18 0
-23 -5 -20 -22 5 -35 54 -44 175 -30 168 19 260 72 349 202 44 65 49 77 52
139 4 67 3 70 -61 197 -90 176 -114 248 -121 364 -4 59 -15 124 -30 171 -58
179 -32 323 63 349 20 5 44 15 53 22 30 23 25 167 -8 228 -16 31 -72 90 -84
90 -5 0 -34 -12 -64 -27 -51 -25 -58 -26 -108 -14 -39 9 -75 29 -138 76 -137
105 -216 125 -365 96z m180 -25 c70 -18 105 -38 172 -97 70 -62 99 -78 157
-85 38 -6 53 -2 101 25 31 17 60 29 64 26 5 -3 23 -25 39 -51 24 -35 32 -61
37 -118 4 -43 3 -81 -2 -91 -6 -9 -34 -27 -63 -39 -47 -18 -57 -28 -87 -81
-34 -60 -34 -61 -27 -154 3 -51 10 -107 15 -124 5 -17 16 -74 25 -127 17 -99
57 -208 156 -421 52 -113 53 -117 48 -186 -4 -62 -10 -79 -45 -129 -81 -118
-172 -168 -325 -181 l-75 -6 60 41 c109 74 135 111 204 285 25 63 28 79 20
120 -11 63 -29 94 -119 213 -94 123 -124 174 -154 256 -38 106 -49 189 -44
330 l6 129 -37 44 c-20 24 -45 58 -56 76 -25 40 -51 48 -153 44 -93 -4 -254
-50 -347 -98 -78 -42 -221 -184 -257 -258 -23 -45 -28 -67 -28 -130 0 -68 4
-83 40 -155 45 -90 69 -204 70 -324 0 -42 9 -110 21 -155 11 -44 28 -110 37
-148 9 -37 21 -66 27 -64 6 2 10 42 11 93 0 85 24 178 53 207 11 11 25 -204
18 -285 -7 -77 -47 -156 -114 -224 -81 -82 -160 -114 -284 -114 -60 0 -72 4
-122 37 -113 74 -115 157 -6 368 32 63 59 127 59 143 0 15 -13 66 -29 112 -28
83 -29 93 -37 360 -4 151 -7 288 -6 304 1 16 29 85 63 154 52 108 71 136 130
194 38 37 73 68 78 68 5 0 16 6 23 13 20 17 41 30 143 83 86 45 143 66 230 84
22 5 78 17 125 28 105 24 122 25 185 8z"/>
<path d="M16710 26000 c-38 -20 -75 -31 -120 -34 -75 -6 -82 -7 -131 -29 -40
-18 -77 -71 -85 -121 -2 -17 -1 -24 2 -16 33 79 51 103 94 125 27 14 71 25
110 28 36 2 78 10 94 16 16 6 32 9 35 5 3 -4 0 -9 -6 -11 -27 -10 -123 -96
-124 -112 -5 -86 11 -152 52 -214 41 -62 46 -108 20 -174 -11 -29 -27 -82 -36
-119 -21 -92 -44 -138 -103 -211 -27 -34 -57 -84 -66 -111 -18 -52 -22 -144
-11 -206 10 -51 87 -216 112 -239 13 -11 18 -26 16 -41 -3 -12 2 -39 11 -59
15 -36 14 -37 -24 -94 -21 -32 -61 -80 -89 -107 l-50 -49 14 46 c7 25 19 56
25 68 22 39 5 91 -59 185 -33 50 -73 117 -88 150 -28 58 -28 61 -28 259 0 132
5 222 14 265 33 158 29 171 -68 216 -31 14 -74 34 -96 44 -108 50 -192 70
-291 70 -88 0 -102 -3 -161 -32 -133 -65 -233 -197 -264 -346 -10 -48 -27
-118 -38 -157 -31 -110 -26 -184 20 -281 10 -22 19 -45 19 -52 0 -12 37 -71
75 -117 14 -17 55 -80 92 -140 77 -128 73 -122 138 -186 77 -76 131 -99 234
-99 l86 -1 -38 -20 c-69 -36 -186 -61 -237 -50 -54 12 -224 99 -300 155 -89
65 -183 166 -224 241 -22 39 -61 100 -87 136 -101 138 -128 237 -104 385 8 51
20 105 26 120 6 16 17 63 26 104 22 106 61 174 198 341 147 179 181 207 338
275 164 71 246 78 409 33 115 -31 195 -76 266 -148 43 -43 67 -60 74 -53 7 7
7 16 -1 29 -21 40 -130 131 -192 160 -123 59 -314 87 -409 60 -95 -27 -256
-93 -301 -125 -48 -32 -127 -113 -174 -177 -17 -22 -51 -66 -77 -98 -117 -143
-138 -185 -184 -382 -63 -265 -46 -373 87 -552 21 -28 52 -77 70 -110 74 -138
185 -243 364 -344 146 -82 211 -95 323 -65 62 17 170 66 215 98 22 16 52 25
92 28 48 4 60 9 63 24 4 17 -1 18 -58 12 -34 -4 -90 -16 -124 -26 -128 -41
-230 -20 -320 63 -46 43 -69 77 -127 192 -39 77 -83 172 -99 210 -15 39 -46
105 -69 148 -46 87 -48 105 -25 168 9 24 19 92 23 150 6 92 11 115 40 173 37
77 103 145 181 187 54 30 57 31 165 26 120 -5 170 -19 310 -86 113 -54 111
-51 94 -174 -8 -62 -14 -180 -14 -298 l1 -196 32 -64 c17 -35 55 -100 84 -144
83 -126 83 -125 62 -171 -40 -90 -56 -184 -31 -184 7 0 59 46 114 103 113 114
141 163 124 212 -7 21 -8 42 -1 65 9 30 7 39 -10 60 -11 14 -42 68 -68 120
-41 82 -47 104 -51 169 -4 78 11 142 40 176 38 45 81 151 100 247 10 54 28
126 40 159 18 57 19 65 5 105 -8 24 -26 59 -41 78 -27 35 -51 148 -39 179 3 8
33 38 67 66 34 29 75 63 92 76 16 14 33 25 37 25 4 0 8 5 8 10 0 17 -33 10
-90 -20z"/>
<path d="M21754 25940 c-34 -10 -108 -22 -165 -28 -135 -14 -196 -33 -245 -78
l-39 -36 51 35 c65 44 104 56 225 67 53 5 109 11 125 15 26 5 9 -3 -65 -30 -8
-3 -12 -8 -9 -10 10 -11 198 66 198 80 0 7 -8 6 -76 -15z"/>
<path d="M21578 25854 c-16 -8 -30 -26 -34 -42 -3 -15 -11 -43 -16 -62 -15
-46 -12 -80 12 -206 11 -58 20 -126 20 -152 0 -26 6 -80 14 -120 12 -64 12
-80 -1 -130 -18 -67 -27 -164 -19 -196 3 -13 37 -55 75 -93 89 -88 93 -112 34
-204 -22 -35 -46 -79 -53 -96 -7 -18 -16 -33 -21 -33 -4 0 -18 -27 -30 -61
-17 -45 -42 -82 -101 -147 -43 -48 -82 -88 -87 -90 -10 -3 10 73 37 143 11 28
28 97 37 155 10 58 25 121 33 140 9 19 19 42 23 51 13 28 -28 95 -74 123 -116
68 -221 232 -267 416 -12 49 -57 120 -103 162 -54 49 -188 63 -260 27 -87 -44
-89 -46 -218 -234 -57 -82 -81 -176 -87 -342 -7 -215 29 -346 99 -360 22 -4
43 -24 80 -75 27 -38 61 -73 75 -78 14 -6 40 -21 57 -34 32 -24 192 -106 238
-121 16 -5 -14 -10 -96 -16 -132 -9 -159 -7 -254 22 -35 10 -86 19 -115 19
-73 0 -174 18 -224 40 -55 25 -123 93 -155 156 -47 94 -54 188 -37 484 14 233
26 314 53 369 31 64 291 324 389 389 101 68 185 91 349 98 112 4 133 2 183
-16 62 -24 84 -48 88 -98 3 -35 9 -40 28 -17 16 19 6 75 -20 107 -38 50 -93
60 -278 56 -139 -4 -179 -9 -237 -28 -77 -25 -179 -90 -275 -178 -87 -78 -248
-268 -271 -319 -24 -52 -35 -145 -49 -398 -13 -258 -4 -362 38 -447 39 -79
111 -154 178 -185 56 -25 182 -53 244 -53 21 0 69 -10 106 -21 58 -18 91 -21
203 -20 73 1 156 7 185 13 28 6 75 12 105 12 65 1 81 22 24 31 -98 15 -140 28
-232 74 -104 52 -187 107 -209 138 -6 10 -30 45 -51 78 -24 38 -53 68 -76 80
-68 37 -78 66 -76 233 2 252 26 348 117 473 19 26 34 51 34 57 0 12 52 53 97
76 41 20 148 21 197 1 60 -25 109 -99 150 -227 54 -173 122 -275 240 -362 51
-38 70 -84 52 -123 -8 -15 -17 -53 -21 -83 -12 -100 -36 -220 -52 -258 -26
-62 -44 -145 -38 -171 6 -23 12 -19 102 70 91 89 153 169 153 195 0 7 15 34
33 61 17 27 54 92 81 144 l50 95 -30 69 c-16 38 -46 89 -66 113 -43 49 -49 89
-23 162 8 23 15 68 15 99 0 58 -22 212 -40 291 -6 25 -11 52 -12 60 0 8 -5 21
-11 28 -6 7 -12 68 -15 135 l-4 121 28 23 c33 26 23 30 -18 7z"/>
<path d="M21295 25779 c-4 -6 -5 -12 -2 -15 2 -3 7 2 10 11 7 17 1 20 -8 4z"/>
<path d="M14745 24696 c-11 -7 -38 -31 -60 -52 -22 -21 -32 -32 -22 -25 27 21
21 -4 -13 -53 -52 -76 -168 -331 -156 -343 2 -2 10 13 17 34 22 68 128 276
177 348 26 39 57 74 70 80 12 5 22 13 22 17 0 12 -13 10 -35 -6z"/>
<path d="M14529 24503 l-24 -28 28 24 c25 23 32 31 24 31 -2 0 -14 -12 -28
-27z"/>
<path d="M19926 24398 c5 -105 5 -107 -19 -123 -13 -8 -39 -37 -57 -63 -18
-27 -47 -59 -65 -71 -86 -58 -254 -78 -352 -41 -50 19 -194 53 -199 47 -2 -2
40 -16 94 -32 53 -15 109 -34 124 -42 35 -17 115 -16 200 2 123 26 159 49 261
168 42 50 45 75 22 192 l-14 70 5 -107z"/>
<path d="M14489 24453 c-13 -16 -12 -17 4 -4 16 13 21 21 13 21 -2 0 -10 -8
-17 -17z"/>
<path d="M14435 24374 c-9 -15 -12 -23 -6 -20 11 7 35 46 28 46 -3 0 -12 -12
-22 -26z"/>
<path d="M14400 24320 c-6 -11 -8 -20 -6 -20 3 0 10 9 16 20 6 11 8 20 6 20
-3 0 -10 -9 -16 -20z"/>
<path d="M19160 24172 c8 -5 26 -13 40 -16 17 -5 20 -4 10 2 -8 5 -26 13 -40
16 -17 5 -20 4 -10 -2z"/>
</g>
</svg>
